<svg width="325" height="77" viewBox="0 0 325 77" fill="none" xmlns="http://www.w3.org/2000/svg">
    <g clip-path="url(#clip0_9_2)">
    <path d="M48.06 59.39C48.8 59.39 50.16 59.31 52.13 59.14L53.98 71.83C47.65 74.79 39.44 76.27 29.33 76.27C19.88 76.27 12.63 73.89 7.58002 69.12C2.53002 64.36 0 57.17 0 47.56C0 42.63 0.640034 37.87 1.91003 33.27C3.18003 28.67 4.64003 25.47 6.28003 23.66C8.00003 21.85 11.21 20.29 15.89 18.98C20.57 17.67 25.21 17.01 29.81 17.01C37.2 17.01 42.75 18.32 46.44 20.95C50.14 23.58 52.56 27.21 53.71 31.85C54.86 36.49 55.44 42.72 55.44 50.52C49.85 50.85 44.39 51.01 39.05 51.01H21.55C21.55 53.64 22.1 55.61 23.21 56.93C24.32 58.24 25.9 59.09 27.95 59.46C30 59.83 32.88 60.01 36.58 60.01C38.65 60.01 42.47 59.81 48.06 59.39ZM21.69 34.87C21.44 36.76 21.28 38.9 21.2 41.28H27.61C31.47 41.28 34.26 41.24 35.99 41.16C35.99 37.22 35.44 34.42 34.33 32.78C33.22 31.14 31.31 30.32 28.6 30.32C26.38 30.32 24.45 30.77 22.81 31.67C22.31 31.91 21.94 32.98 21.69 34.87Z" fill="white"/>
    <path d="M73.2 45.84L59.03 18.11H79.49L89.72 40.05L100.07 18.11H120.4L106.35 45.84L121.75 74.8H101.17L89.71 51.39L78.25 74.8H57.67L73.2 45.84Z" fill="white"/>
    <path d="M179.6 22.67C183.09 26.53 184.84 33.35 184.84 43.13C184.84 50.28 184.12 56.38 182.68 61.43C181.24 66.48 179.62 69.71 177.81 71.1C175.67 72.83 172.51 74.1 168.32 74.92C164.13 75.74 159.37 76.15 154.03 76.15C149.92 76.15 145.32 75.84 140.23 75.23C135.14 74.61 130.58 73.65 126.55 72.33V0.860016L147.87 0V11.58C147.87 12.24 147.85 13.76 147.81 16.14C147.77 18.52 147.67 20.51 147.5 22.12C147.33 23.72 147.09 24.93 146.76 25.76L147.5 26.62C149.39 23.74 151.77 21.4 154.65 19.6C157.52 17.79 160.89 16.89 164.75 16.89C171.16 16.88 176.11 18.81 179.6 22.67ZM162.6 55.57C162.97 52.53 163.15 49.61 163.15 46.82C163.15 43.54 163.01 40.95 162.72 39.06C162.43 37.17 161.73 35.67 160.62 34.56C159.51 33.45 157.81 32.9 155.51 32.9C153.46 32.9 150.83 33.19 147.62 33.76V61.61C150.66 62.1 153.82 62.35 157.11 62.35C159.49 62.35 160.89 62.02 161.3 61.36C161.8 60.54 162.23 58.61 162.6 55.57Z" fill="white"/>
    <path d="M238.81 59.39C239.55 59.39 240.9 59.31 242.88 59.14L244.73 71.83C238.4 74.79 230.19 76.27 220.08 76.27C210.63 76.27 203.38 73.89 198.33 69.12C193.28 64.36 190.75 57.17 190.75 47.56C190.75 42.63 191.39 37.87 192.66 33.27C193.93 28.67 195.39 25.47 197.03 23.66C198.75 21.85 201.96 20.29 206.64 18.98C211.32 17.67 215.96 17.01 220.56 17.01C227.95 17.01 233.5 18.32 237.19 20.95C240.89 23.58 243.31 27.21 244.46 31.85C245.61 36.49 246.19 42.72 246.19 50.52C240.6 50.85 235.14 51.01 229.8 51.01H212.3C212.3 53.64 212.85 55.61 213.96 56.93C215.07 58.24 216.65 59.09 218.7 59.46C220.75 59.83 223.63 60.01 227.33 60.01C229.4 60.01 233.22 59.81 238.81 59.39ZM212.44 34.87C212.19 36.76 212.03 38.9 211.95 41.28H218.36C222.22 41.28 225.01 41.24 226.74 41.16C226.74 37.22 226.19 34.42 225.08 32.78C223.97 31.14 222.06 30.32 219.35 30.32C217.13 30.32 215.2 30.77 213.56 31.67C213.06 31.91 212.69 32.98 212.44 34.87Z" fill="white"/>
    <path d="M279.72 51.51C279.72 52.99 279.76 54.53 279.84 56.13C279.92 57.73 280.17 58.74 280.58 59.15C281.15 59.72 283.17 60.01 286.62 60.01L290.81 59.89C291.55 63.83 291.92 68.39 291.92 73.57C290.36 74.15 288.08 74.68 285.08 75.17C282.08 75.66 279.23 75.91 276.52 75.91C270.85 75.91 266.48 74.66 263.4 72.15C260.32 69.64 258.78 65.76 258.78 60.5V30.19H249.54V18.98L258.78 18.12L264.33 4.56998L279.73 3.70996V18.13H292.79V30.21H279.73V51.51H279.72Z" fill="white"/>
    <path d="M312.59 75.18C319.317 75.18 324.77 69.7268 324.77 63C324.77 56.2732 319.317 50.82 312.59 50.82C305.863 50.82 300.41 56.2732 300.41 63C300.41 69.7268 305.863 75.18 312.59 75.18Z" fill="#2E7BCC"/>
    </g>
    <defs>
    <clipPath id="clip0_9_2">
    <rect width="325" height="77" fill="white"/>
    </clipPath>
    </defs>
    </svg>
    